# xmcd
#
# Track frame offsets:
#	150
#	22072
#	43875
#	62885
#	83180
#	97005
#	111695
#	125122
#	146010
#	168325
#	186347
#	201072
#	216040
#	233475
#	247417
#	264887
#	282515
#	300960
#	321375
#
# Disc length: 4643 seconds
#
# Revision: 1
# Processed by: cddbd v1.5.1PL0 Copyright (c) Steve Scherf et al.
# Submitted via: CDex 1.50Beta5
#
DISCID=2a122113
DTITLE=さまざまなアーティスト - HIT POPS 100 1970-2000 SME BURGER
DYEAR=1900
DGENRE=Pop
TTITLE0=SIMON and GARFUNKEL/BRIDGE OVER TROUBLED WATER
TTITLE1=Billy Joel/Just The Way You Are
TTITLE2=Boz Scaggs/We're All Alone
TTITLE3=Janis Joplin/Me And Bobby McGee
TTITLE4=Sly and The Family Stone/Family Affair
TTITLE5=Santana/Black Magic Woman
TTITLE6=Chase/Get It On
TTITLE7=Earth, Wind and Fire/Fantasy
TTITLE8=Toto/Africa
TTITLE9=Cyndi Lauper/Time After Time
TTITLE10=REO Speedwagon/In Your Letter
TTITLE11=Journey/Open Arms
TTITLE12=Wham!/Wake Me Up Before You Go Go
TTITLE13=Bangles/Manic Monday
TTITLE14=Nena/99 Luftballons
TTITLE15=Meja/How Crazy Are You?
TTITLE16=Jamiroquai/Virtual Insanity
TTITLE17=Ben Folds Five/Brick
TTITLE18=Oasis/Stand By Me
EXTD=
EXTT0=
EXTT1=
EXTT2=
EXTT3=
EXTT4=
EXTT5=
EXTT6=
EXTT7=
EXTT8=
EXTT9=
EXTT10=
EXTT11=
EXTT12=
EXTT13=
EXTT14=
EXTT15=
EXTT16=
EXTT17=
EXTT18=
PLAYORDER=
